<svg width="150" xmlns="http://www.w3.org/2000/svg" height="100" id="screenshot-ff04a129-6c9f-80ef-8007-361242f463de" viewBox="0 0 150 100" xmlns:xlink="http://www.w3.org/1999/xlink" fill="none" version="1.1"><g id="shape-ff04a129-6c9f-80ef-8007-361242f463de"><g class="frame-container-wrapper"><g class="frame-container-blur"><g class="frame-container-shadows"><g fill="none"><g class="fills" id="fills-ff04a129-6c9f-80ef-8007-361242f463de"><rect rx="0" ry="0" x="0" y="1.4210854715202004e-14" width="150.00000000000003" height="100.00000000000006" transform="matrix(1.000000, 0.000000, 0.000000, 1.000000, 0.000000, 0.000000)" class="frame-background"/></g><g class="frame-children"><g id="shape-ff04a129-6c9f-80ef-8007-361021a86ee4" rx="0" ry="0"><g id="shape-ff04a129-6c9f-80ef-8007-360f1e6bdde2"><g class="fills" id="fills-ff04a129-6c9f-80ef-8007-360f1e6bdde2"><ellipse cx="25.000000000000007" cy="75.00000000000007" rx="25" ry="25" transform="matrix(1.000000, 0.000000, 0.000000, 1.000000, 0.000000, 0.000000)" style="fill: rgb(191, 0, 255); fill-opacity: 1;"/></g></g><g id="shape-ff04a129-6c9f-80ef-8007-360f33c4d37b"><g class="fills" id="fills-ff04a129-6c9f-80ef-8007-360f33c4d37b"><ellipse cx="74.99999999999999" cy="25.000000000000053" rx="25" ry="25.000000000000004" transform="matrix(1.000000, 0.000000, 0.000000, 1.000000, 0.000000, 0.000000)" style="fill: rgb(191, 0, 255); fill-opacity: 1;"/></g></g><g id="shape-ff04a129-6c9f-80ef-8007-360f390dbec3"><g class="fills" id="fills-ff04a129-6c9f-80ef-8007-360f390dbec3"><ellipse cx="125.00000000000003" cy="75" rx="25.000000000000007" ry="25" transform="matrix(1.000000, 0.000000, 0.000000, 1.000000, 0.000000, 0.000000)" style="fill: rgb(191, 0, 255); fill-opacity: 1;"/></g></g><g id="shape-ff04a129-6c9f-80ef-8007-360f92ae033a"><g class="fills" id="fills-ff04a129-6c9f-80ef-8007-360f92ae033a"><rect rx="0" ry="0" x="45.21320343559643" y="25.213203435596505" transform="matrix(0.707107, 0.707107, -0.707107, 0.707107, 50.213203, -20.798990)" width="9.999999999999972" height="49.99999999999998" style="fill: rgb(191, 0, 255); fill-opacity: 1;"/></g></g><g id="shape-ff04a129-6c9f-80ef-8007-360fb1ec3c83"><g class="fills" id="fills-ff04a129-6c9f-80ef-8007-360fb1ec3c83"><rect rx="0" ry="0" x="95.21320343559643" y="25.21320343559646" transform="matrix(-0.707107, 0.707107, -0.707107, -0.707107, 206.580736, 14.857864)" width="10" height="50" style="fill: rgb(191, 0, 255); fill-opacity: 1;"/></g></g></g></g></g></g></g></g></g></svg>